Simulation
nRows=32
nColumns=15
endheader
time  TH_x TH_y TH_z SC_y  SC_z  SC_x  AC_y  AC_z  AC_x  GH_y  GH_z  GH_yy  EL_x  PS_y
0.0  0.000000  0.000000  0.000000  -26.843304269888193  -1.1080144662649554  1.3156914958349564  51.25980816943292  6.522512016176888  -2.8677799375141153  19.302799793885796  13.144909101287503  25.126079639965965  27.084889804326096  0.000000
0.039  0.000000  0.000000  0.000000  -26.78216698046886  -0.7751790517382435  1.4337284210957837  50.800587349753535  6.711845095020898  -2.9872801051745554  18.26736243586252  13.415550184919827  26.046100607609503  26.689867688584773  0.000000
0.078  0.000000  0.000000  0.000000  -26.641363665728196  -0.6797234194205064  1.5546061222849603  50.51635394557997  6.574836305799445  -3.170706678012964  17.609702525480483  13.531076405604304  26.5896442202365  26.236219121522748  0.000000
0.11699999999999999  0.000000  0.000000  0.000000  -26.50242035126347  -0.7050873299083033  1.7041747842894768  50.46046380483543  6.334919366040321  -3.3163432412330205  17.232910203886995  13.552165901346944  26.824333271443965  25.8831559689891  0.000000
0.156  0.000000  0.000000  0.000000  -26.347830429412323  -0.8023511611917958  1.817219829468039  50.54563916008599  6.126935581255775  -3.3613064642785293  17.343748073387395  13.593195172279884  26.395243200585373  25.574145313392794  0.000000
0.195  0.000000  0.000000  0.000000  -26.22346449163698  -0.9316696940041865  1.8805193607946302  50.78205609100588  6.0192910713481345  -3.320802805169018  18.189519242675594  13.785470329148206  25.067710012152443  25.313167019375765  0.000000
0.23399999999999999  0.000000  0.000000  0.000000  -26.133958801942658  -1.0453224284842255  1.8879395004419344  51.05585718029093  6.022031993376021  -3.1917693139101204  19.94903295422627  14.19902025414828  22.64908164096834  25.10872185708461  0.000000
0.273  0.000000  0.000000  0.000000  -26.107661538198577  -1.1278832268173247  1.863030646759269  51.354986134158466  6.129289417809115  -3.0224003134334265  22.68931891783213  14.894867755770102  19.090078324864  24.95184478479395  0.000000
0.312  0.000000  0.000000  0.000000  -26.144039825394316  -1.1689210964673555  1.8428235801533799  51.63890419155038  6.316337326793605  -2.8341383690542665  26.202749004864785  15.894210099222981  14.590971855877099  24.8551113558037  0.000000
0.351  0.000000  0.000000  0.000000  -26.228759955442126  -1.170717005575303  1.8616434188483775  51.93042105861982  6.547383296632585  -2.647437535518811  30.10726607555163  17.21030812335853  9.51911586991801  24.801631215821665  0.000000
0.39  0.000000  0.000000  0.000000  -26.3257579274522  -1.1416141144026815  1.941961381996653  52.24632197031733  6.802766918342429  -2.4643925161997235  33.93170555816843  18.820192607686522  4.352219447946112  24.800883742711573  0.000000
0.429  0.000000  0.000000  0.000000  -26.402391230732245  -1.0862454626270215  2.0870953660883966  52.60773919526793  7.069280154590957  -2.2796387732782075  37.33449836180702  20.681391067130505  -0.5514565483987184  24.846263584835654  0.000000
0.46799999999999997  0.000000  0.000000  0.000000  -26.43782981208051  -1.0099351834582322  2.2857385800809733  53.01900303095155  7.352960851404159  -2.0890266081678366  40.16192305180611  22.739943002329728  -4.999878494373441  24.93681399642325  0.000000
0.507  0.000000  0.000000  0.000000  -26.41654331439835  -0.910045460745282  2.5214230094486276  53.46891959770524  7.657806023129535  -1.885370858883197  42.41238095309289  24.943238405209  -8.94999064270236  25.05080064514475  0.000000
0.546  0.000000  0.000000  0.000000  -26.33579520064877  -0.7832407691769262  2.7820152969645218  53.940918705867205  7.991151826464675  -1.6724519643061373  44.17799667840438  27.247186196597  -12.456593327730237  25.16890654275761  0.000000
0.585  0.000000  0.000000  0.000000  -26.207538222547836  -0.6209511752207643  3.066485777970676  54.40607032285162  8.35314678104551  -1.4560145217093332  45.589927410047316  29.61017435039674  -15.625177037976117  25.26954453310285  0.000000
0.624  0.000000  0.000000  0.000000  -26.071547355090324  -0.41205900736724604  3.3861383835072427  54.83506978755249  8.740741195337245  -1.2514845832798598  46.80608106402943  31.99758575664953  -18.606411406997562  25.339495137376147  0.000000
0.663  0.000000  0.000000  0.000000  -25.977899406734732  -0.14495076624905964  3.7651149702664846  55.201450692956136  9.136942895713354  -1.0710397911992524  47.9566349213332  34.37885144394152  -21.529721738062538  25.36580183938317  0.000000
0.702  0.000000  0.000000  0.000000  -25.955212597429405  0.18437768820996484  4.231478801097706  55.49605360757933  9.520397642519816  -0.9273254589529836  49.11330248372509  36.73249411900412  -24.459265957510972  25.33986764295152  0.000000
0.741  0.000000  0.000000  0.000000  -25.995962951717647  0.5759155588590593  4.807859614639324  55.72818309667306  9.867040848382826  -0.8196078953278945  50.25934114638365  39.043697954874666  -27.350557711141008  25.262261457013555  0.000000
0.78  0.000000  0.000000  0.000000  -26.06476085248627  1.0242824083128734  5.502592104502146  55.92144139779411  10.164520330643876  -0.739419926125313  51.32630391548472  41.30193645939531  -30.09340715513763  25.140273955962  0.000000
0.819  0.000000  0.000000  0.000000  -26.12643617901027  1.5203933682565998  6.305997995068464  56.0969269684187  10.409362116976396  -0.670367895930916  52.239776670476964  43.49726520862233  -32.5692974227421  24.98661868954497  0.000000
0.858  0.000000  0.000000  0.000000  -26.1671507739627  2.0517791396412517  7.1875481088188256  56.26465883048521  10.606086238988128  -0.5947798918063512  52.96337057216782  45.61957147333059  -34.71506831222521  24.819529814866836  0.000000
0.897  0.000000  0.000000  0.000000  -26.19737305689651  2.602058739767577  8.105285069907621  56.423007854351596  10.760220602798425  -0.4976545584046401  53.49466475086567  47.657047012655326  -36.520893196380364  24.666657247701462  0.000000
0.9359999999999999  0.000000  0.000000  0.000000  -26.23947224020225  3.1559873897046566  9.01926233664226  56.56669609471271  10.88166594331032  -0.37135029949811266  53.849709693751954  49.59457698891949  -38.01427358839296  24.556062501790134  0.000000
0.975  0.000000  0.000000  0.000000  -26.31231799886772  3.701981080987295  9.906206624997276  56.69220936745344  10.980990636589777  -0.21515089828410203  54.0448685717141  51.415828527356666  -39.231121872623916  24.5020127429444  0.000000
1.014  0.000000  0.000000  0.000000  -26.418302395136802  4.234457191968499  10.76222970185149  56.79727545116879  11.067679888051455  -0.03631536038324905  54.10190581217381  53.10943722872624  -40.21719868338782  24.495656793205125  0.000000
1.053  0.000000  0.000000  0.000000  -26.550750663179187  4.752506813511042  11.59612915347689  56.87992864322708  11.146922616494825  0.15629215718574735  54.04849343210443  54.67189225920919  -41.02227633467544  24.512685134651395  0.000000
1.092  0.000000  0.000000  0.000000  -26.702623300993327  5.260189486024125  12.423319418906006  56.9373846758628  11.219509641644258  0.3546234480792962  53.91658472128687  56.10309470340566  -41.70099541602696  24.527432119375295  0.000000
1.131  0.000000  0.000000  0.000000  -26.875620207272075  5.761542295542807  13.263307510100162  56.968150270612306  11.283056829719923  0.5524278032553429  53.73929986809579  57.39910321450489  -42.30508689521024  24.524828030403075  0.000000
1.17  0.000000  0.000000  0.000000  -27.080016408758198  6.260131599214081  14.13343616646822  56.97149650871018  11.332758790915301  0.7453414420733341  53.55144802084667  58.55396335199584  -42.88164317985606  24.500492354773865  0.000000
1.209  0.000000  0.000000  0.000000  -27.326978136658177  6.758575959668202  15.044704161241317  56.948633395470374  11.365196783404837  0.9343969596509386  53.38124998559047  59.56280571626446  -43.46018260903522  24.45358851524091  0.000000
